<svg width="25" height="13" viewBox="0 0 25 13" fill="none" xmlns="http://www.w3.org/2000/svg">
<path d="M12.3516 12.161C5.72156 12.161 0.351562 9.44098 0.351562 6.08098C0.351562 2.72098 5.72156 0.000976562 12.3516 0.000976562C18.9816 0.000976562 24.3516 2.72098 24.3516 6.08098C24.3516 9.44098 18.9816 12.161 12.3516 12.161ZM7.16156 4.21098C7.70156 4.21098 8.07156 4.31098 8.25156 4.52098C8.43156 4.72098 8.47156 5.08098 8.38156 5.55098C8.28156 6.08098 8.09156 6.42098 7.80156 6.64098C7.52156 6.86098 7.09156 6.97098 6.51156 6.97098H5.64156L6.17156 4.21098H7.16156ZM3.66156 9.76098H5.10156L5.44156 8.01098H6.67156C7.21156 8.01098 7.65156 7.95098 8.00156 7.84098C8.35156 7.72098 8.67156 7.53098 8.96156 7.26098C9.20156 7.04098 9.39156 6.80098 9.54156 6.53098C9.69156 6.27098 9.80156 5.97098 9.85156 5.65098C10.0116 4.87098 9.90156 4.26098 9.52156 3.83098C9.13156 3.39098 8.53156 3.18098 7.70156 3.18098H4.94156L3.66156 9.76098ZM10.9116 1.43098L9.63156 8.01098H11.0516L11.7916 4.24098H12.9316C13.2916 4.24098 13.5316 4.30098 13.6416 4.42098C13.7516 4.54098 13.7716 4.76098 13.7116 5.08098L13.1416 8.01098H14.5916L15.1816 4.94098C15.3116 4.32098 15.2116 3.87098 14.9116 3.58098C14.6116 3.31098 14.0616 3.18098 13.2616 3.18098H11.9916L12.3516 1.43098H10.9116ZM18.3516 4.21098C18.9016 4.21098 19.2616 4.31098 19.4416 4.52098C19.6216 4.72098 19.6616 5.08098 19.5716 5.55098C19.4716 6.08098 19.2816 6.42098 19.0016 6.64098C18.7116 6.86098 18.2816 6.97098 17.7016 6.97098H16.8516L17.3516 4.21098H18.3516ZM14.8516 9.76098H16.2916L16.6316 8.01098H17.8516C18.4016 8.01098 18.8516 7.95098 19.2016 7.84098C19.5516 7.72098 19.8516 7.53098 20.1516 7.26098C20.3916 7.04098 20.5916 6.80098 20.7316 6.53098C20.8816 6.27098 20.9916 5.97098 21.0516 5.65098C21.2016 4.87098 21.0916 4.26098 20.7116 3.83098C20.3516 3.39098 19.7216 3.18098 18.8916 3.18098H16.1416L14.8516 9.76098Z" fill="#FF00A9"/>
</svg>
