<svg width="40" height="40" viewBox="0 0 40 40" fill="none" xmlns="http://www.w3.org/2000/svg">
<path d="M20 0C22.6264 0 25.2272 0.517315 27.6537 1.52241C30.0802 2.5275 32.285 4.00069 34.1421 5.85786C35.9993 7.71504 37.4725 9.91982 38.4776 12.3463C39.4827 14.7728 40 17.3736 40 20C40 25.3043 37.8929 30.3914 34.1421 34.1421C30.3914 37.8929 25.3043 40 20 40C17.3736 40 14.7728 39.4827 12.3463 38.4776C9.91982 37.4725 7.71504 35.9993 5.85786 34.1421C2.10714 30.3914 0 25.3043 0 20C0 14.6957 2.10714 9.60859 5.85786 5.85786C9.60859 2.10714 14.6957 0 20 0V0ZM16 26.66C16.32 27.74 16.28 28.74 16 29.66C16 29.76 15.92 29.86 15.88 30C15.84 30 15.8 30.14 15.74 30.24C15.52 30.72 15.2 31.18 14.82 31.58C13.66 32.86 12 33.34 11.34 32.94C10.58 32.5 11 30.7 12.32 29.28C13.76 27.76 15.84 26.76 15.84 26.76L16 26.66ZM32.54 8.56C31.64 5 25.74 3.84 20.18 5.82C16.86 7 13.26 8.84 10.68 11.26C7.62 14.14 7.12 16.64 7.32 17.68C8 21.36 13.08 23.78 15.16 25.56V25.58C14.56 25.88 10.08 28.14 9 30.46C7.92 32.9 9.2 34.66 10 34.9C12.68 35.62 15.38 34.32 16.82 32.14C18.22 30.06 18.12 27.36 17.5 26C18.34 25.8 19.32 25.7 20.56 25.84C24.08 26.26 24.76 28.44 24.62 29.36C24.5 30.28 23.76 30.78 23.52 30.94C23.28 31.08 23.2 31.14 23.22 31.26C23.24 31.42 23.36 31.42 23.56 31.38C23.86 31.32 25.42 30.64 25.48 28.94C25.56 26.78 23.5 24.38 19.86 24.44C18.36 24.48 17.42 24.62 16.74 24.88L16.58 24.7C14.32 22.3 10.16 20.6 10.34 17.36C10.4 16.18 10.8 13.1 18.34 9.34C24.5 6.26 29.44 7.1 30.3 9C31.52 11.66 27.66 16.64 21.26 17.36C18.82 17.64 17.52 16.68 17.2 16.34C16.86 16 16.82 15.94 16.7 16C16.48 16.14 16.62 16.46 16.7 16.66C16.88 17.16 17.68 18 19 18.48C20.18 18.86 23.06 19.08 26.52 17.74C30.4 16.24 33.44 12.06 32.54 8.56Z" fill="#FF00A9"/>
</svg>
