<svg width="36" height="42" viewBox="0 0 36 42" fill="none" xmlns="http://www.w3.org/2000/svg">
<path d="M18 0.700195C17.46 0.700195 16.9 0.840195 16.44 1.1002L1.56 9.7002C0.6 10.2602 0 11.3002 0 12.4202V29.5802C0 30.7002 0.6 31.7402 1.56 32.3002L5.46 34.5402C7.36 35.4602 8 35.4802 8.88 35.4802C11.68 35.4802 13.3 33.7802 13.3 30.8202V13.8802C13.3 13.6402 13.1 13.4402 12.86 13.4402H11C10.74 13.4402 10.54 13.6402 10.54 13.8802V30.8202C10.54 32.1402 9.18 33.4402 7 32.3402L2.9 30.0002C2.76 29.9002 2.68 29.7402 2.68 29.5802V12.4202C2.68 12.2402 2.76 12.0802 2.9 12.0002L17.78 3.4202C17.9 3.3402 18.1 3.3402 18.22 3.4202L33.1 12.0002C33.24 12.0802 33.32 12.2402 33.32 12.4202V29.5802C33.32 29.7402 33.24 29.9002 33.1 30.0002L18.22 38.5802C18.1 38.6602 17.9 38.6602 17.76 38.5802L14 36.3002C13.84 36.2402 13.68 36.2202 13.58 36.2802C12.52 36.8802 12.32 37.0002 11.34 37.3002C11.1 37.3802 10.72 37.5202 11.48 37.9402L16.44 40.8802C16.92 41.1602 17.44 41.3002 18 41.3002C18.56 41.3002 19.08 41.1602 19.56 40.8802L34.44 32.3002C35.4 31.7402 36 30.7002 36 29.5802V12.4202C36 11.3002 35.4 10.2602 34.44 9.7002L19.56 1.1002C19.1 0.840195 18.56 0.700195 18 0.700195ZM22 13.0002C17.76 13.0002 15.22 14.7802 15.22 17.7802C15.22 21.0002 17.74 21.9402 21.82 22.3402C26.68 22.8202 27.06 23.5402 27.06 24.5002C27.06 26.1602 25.72 26.8602 22.6 26.8602C18.64 26.8602 17.8 25.8802 17.5 23.9202C17.46 23.7202 17.28 23.5602 17.06 23.5602H15.14C14.9 23.5602 14.72 23.7402 14.72 24.0002C14.72 26.4802 16.08 29.4802 22.6 29.4802C27.3 29.4802 30 27.6202 30 24.3802C30 21.1602 27.84 20.3202 23.26 19.7002C18.64 19.1002 18.18 18.7802 18.18 17.7002C18.18 16.8002 18.58 15.6002 22 15.6002C25 15.6002 26.18 16.2602 26.64 18.3202C26.68 18.5202 26.86 18.6602 27.06 18.6602H29C29.1 18.6602 29.22 18.6202 29.3 18.5202C29.38 18.4402 29.44 18.3202 29.4 18.2002C29.12 14.6402 26.76 13.0002 22 13.0002Z" fill="#EF01A0"/>
</svg>
